<svg id="Flag-Argentina--Streamline-Openmoji" viewBox="0 0 32 32" xmlns="http://www.w3.org/2000/svg" height="32" width="32">
  <desc>
    Flag Argentina Streamline Emoji: https://streamlinehq.com
  </desc>
  <g id="color">
    <path fill="#1e50a0" d="M2.2222222222222223 7.555555555555555h27.555555555555554v16.88888888888889H2.2222222222222223Z" stroke-width="0.4444"></path>
    <path fill="#ffffff" d="M2.2222222222222223 7.555555555555555h27.555555555555554v16.88888888888889H2.2222222222222223Z" stroke-width="0.4444"></path>
    <path fill="#61b2e4" d="M2.2222222222222223 18.666666666666664h27.555555555555554v5.777777777777778H2.2222222222222223Z" stroke-width="0.4444"></path>
    <path fill="#61b2e4" d="M2.2222222222222223 7.555555555555555h27.555555555555554v5.777777777777778H2.2222222222222223Z" stroke-width="0.4444"></path>
    <path fill="#f1b31c" stroke="#f1b31c" stroke-linecap="round" stroke-linejoin="round" d="M16 15.065333333333331 16.54933333333333 14.222222222222221l-0.026666666666666665 1.0217777777777777 0.9155555555555556 -0.3426666666666667 -0.5928888888888889 0.8097777777777777L17.77777777777778 16l-0.9324444444444443 0.28888888888888886 0.5928888888888889 0.8097777777777777 -0.9155555555555556 -0.3426666666666667 0.026666666666666665 1.0217777777777777L16 16.934666666666665 15.450666666666667 17.77777777777778l0.026666666666666665 -1.0217777777777777 -0.9155555555555556 0.3426666666666667 0.5928888888888889 -0.8097777777777777L14.222222222222221 16l0.9324444444444443 -0.28888888888888886 -0.5928888888888889 -0.8097777777777777 0.9155555555555556 0.3426666666666667 -0.026666666666666665 -1.0217777777777777L16 15.065333333333331z" stroke-width="0.4444"></path>
  </g>
  <g id="line">
    <path fill="none" stroke="#000000" stroke-linecap="round" stroke-linejoin="round" stroke-width="0.8889" d="M2.2222222222222223 7.555555555555555h27.555555555555554v16.88888888888889H2.2222222222222223Z"></path>
  </g>
</svg>