<svg id="Flag-Australia--Streamline-Openmoji" viewBox="0 0 32 32" xmlns="http://www.w3.org/2000/svg" height="32" width="32">
  <desc>
    Flag Australia Streamline Emoji: https://streamlinehq.com
  </desc>
  <g id="color">
    <path fill="#1e50a0" d="M2.2222222222222223 7.555555555555555h27.555555555555554v16.88888888888889H2.2222222222222223Z" stroke-width="0.4444"></path>
    <path fill="#ffffff" stroke="#ffffff" stroke-linecap="round" stroke-linejoin="round" d="m24.103555555555552 17.308888888888887 0.412 -1.3333333333333333 0.412 1.3333333333333333 -1.0786666666666667 -0.8244444444444444 1.3333333333333333 0.0004444444444444444 -1.0786666666666667 0.824z" stroke-width="0.4444"></path>
    <path fill="#ffffff" stroke="#ffffff" stroke-linecap="round" stroke-linejoin="round" d="m9.11111111111111 20.888444444444445 -0.6924444444444444 0.6564444444444445 0.06888888888888889 -0.9644444444444443L7.555555555555555 20.434666666666665l0.7777777777777777 -0.5466666666666666 -0.46977777777777774 -0.8382222222222221 0.9013333333333333 0.2831111111111111 0.3462222222222222 -0.8991111111111111 0.3462222222222222 0.8991111111111111 0.9013333333333333 -0.2831111111111111 -0.46977777777777774 0.8382222222222221 0.7777777777777777 0.5466666666666666 -0.9319999999999999 0.14577777777777778 0.06888888888888889 0.9644444444444443 -0.6924444444444444 -0.6564444444444445z" stroke-width="0.4444"></path>
    <path fill="#ffffff" stroke="#ffffff" stroke-linecap="round" stroke-linejoin="round" d="m19.777777777777775 15.742666666666665 -0.49466666666666664 0.46888888888888886 0.04933333333333333 -0.6888888888888889L18.666666666666664 15.418222222222223l0.5555555555555556 -0.3902222222222222 -0.33555555555555555 -0.5986666666666666 0.644 0.20222222222222222 0.24711111111111111 -0.6422222222222222 0.24711111111111111 0.6422222222222222 0.644 -0.20222222222222222 -0.33555555555555555 0.5986666666666666 0.5555555555555556 0.3902222222222222 -0.6657777777777777 0.10444444444444444 0.04933333333333333 0.6888888888888889 -0.49466666666666664 -0.46888888888888886z" stroke-width="0.4444"></path>
    <path fill="#ffffff" stroke="#ffffff" stroke-linecap="round" stroke-linejoin="round" d="m26.444444444444443 14.409333333333333 -0.49466666666666664 0.46888888888888886 0.04933333333333333 -0.6888888888888889L25.333333333333332 14.084888888888887l0.5555555555555556 -0.3902222222222222 -0.33555555555555555 -0.5986666666666666 0.644 0.20222222222222222 0.24711111111111111 -0.6422222222222222 0.24711111111111111 0.6422222222222222 0.644 -0.20222222222222222 -0.33555555555555555 0.5986666666666666 0.5555555555555556 0.3902222222222222 -0.6657777777777777 0.10444444444444444 0.04933333333333333 0.6888888888888889 -0.49466666666666664 -0.46888888888888886z" stroke-width="0.4444"></path>
    <path fill="#ffffff" stroke="#ffffff" stroke-linecap="round" stroke-linejoin="round" d="m22.88888888888889 11.742666666666667 -0.49466666666666664 0.46888888888888886 0.04933333333333333 -0.6888888888888889L21.777777777777775 11.418222222222221l0.5555555555555556 -0.3902222222222222 -0.33555555555555555 -0.5986666666666666 0.644 0.20222222222222222 0.24711111111111111 -0.6422222222222222 0.24711111111111111 0.6422222222222222 0.644 -0.20222222222222222 -0.33555555555555555 0.5986666666666666 0.5555555555555556 0.3902222222222222 -0.6657777777777777 0.10444444444444444 0.04933333333333333 0.6888888888888889 -0.49466666666666664 -0.46888888888888886z" stroke-width="0.4444"></path>
    <path fill="#ffffff" stroke="#ffffff" stroke-linecap="round" stroke-linejoin="round" d="m22.88888888888889 21.075999999999997 -0.49466666666666664 0.46888888888888886 0.04933333333333333 -0.6888888888888889L21.777777777777775 20.751555555555555l0.5555555555555556 -0.3902222222222222 -0.33555555555555555 -0.5986666666666666 0.644 0.20222222222222222 0.24711111111111111 -0.6422222222222222 0.24711111111111111 0.6422222222222222 0.644 -0.20222222222222222 -0.33555555555555555 0.5986666666666666 0.5555555555555556 0.3902222222222222 -0.6657777777777777 0.10444444444444444 0.04933333333333333 0.6888888888888889 -0.49466666666666664 -0.46888888888888886z" stroke-width="0.4444"></path>
    <g>
      <path fill="#ffffff" d="M4.394222222222222 8 2.6666666666666665 8l0 1.0364444444444443L14.272444444444444 16 16 16l0 -1.0364444444444443L4.394222222222222 8z" stroke-width="0.4444"></path>
      <path fill="#ffffff" d="M16 9.036444444444443 16 8l-1.7275555555555555 0L2.6666666666666665 14.963555555555555 2.6666666666666665 16l1.7275555555555555 0L16 9.036444444444443z" stroke-width="0.4444"></path>
      <path fill="#ffffff" d="M2.6666666666666665 10.666666666666666h13.333333333333332v2.6666666666666665H2.6666666666666665Z" stroke-width="0.4444"></path>
      <path fill="#ffffff" d="M8 8h2.6666666666666665v8h-2.6666666666666665Z" stroke-width="0.4444"></path>
      <path fill="#d22f27" d="M8.88888888888889 8h0.8888888888888888v8h-0.8888888888888888Z" stroke-width="0.4444"></path>
      <path fill="#d22f27" d="M2.6666666666666665 11.555555555555555h13.333333333333332v0.8888888888888888H2.6666666666666665Z" stroke-width="0.4444"></path>
      <path fill="#d22f27" d="M16 14.963555555555555 13.283111111111111 13.333333333333332 11.555555555555555 13.333333333333332l4.444444444444445 2.6666666666666665 0 -1.0364444444444443z" stroke-width="0.4444"></path>
      <path fill="#d22f27" d="m16 8 -1.7275555555555555 0L10.666666666666666 10.163555555555554 10.666666666666666 10.666666666666666l0.8888888888888888 0 4.444444444444445 -2.6666666666666665z" stroke-width="0.4444"></path>
      <path fill="#d22f27" d="M2.6666666666666665 9.036444444444443 5.383555555555555 10.666666666666666 7.111111111111111 10.666666666666666 2.6666666666666665 8l0 1.0364444444444443z" stroke-width="0.4444"></path>
      <path fill="#d22f27" d="m2.6666666666666665 16 1.7275555555555555 0L8 13.836444444444444 8 13.333333333333332l-0.8888888888888888 0 -4.444444444444445 2.6666666666666665z" stroke-width="0.4444"></path>
    </g>
  </g>
  <g id="line">
    <path fill="none" stroke="#000000" stroke-linecap="round" stroke-linejoin="round" stroke-width="0.8889" d="M2.2222222222222223 7.555555555555555h27.555555555555554v16.88888888888889H2.2222222222222223Z"></path>
  </g>
</svg>