<svg id="Flag-Bosnia-Herzegovina--Streamline-Openmoji" viewBox="0 0 32 32" xmlns="http://www.w3.org/2000/svg" height="32" width="32">
  <desc>
    Flag Bosnia and Herzegovina Streamline Emoji: https://streamlinehq.com
  </desc>
  <g id="color">
    <path fill="#1e50a0" d="M2.2222222222222223 7.555555555555555h27.555555555555554v16.88888888888889H2.2222222222222223Z" stroke-width="0.4444"></path>
    <path fill="#f1b31c" d="M22.22222222222222 24.444444444444443 6.666666666666666 7.555555555555555l15.555555555555555 0 0 16.88888888888889z" stroke-width="0.4444"></path>
    <path fill="#ffffff" d="M4.155555555555555 8a0.7777777777777777 0.7777777777777777 0 1 0 1.5555555555555554 0 0.7777777777777777 0.7777777777777777 0 1 0 -1.5555555555555554 0" stroke-width="0.4444"></path>
    <path fill="#ffffff" d="M18.822222222222223 24a0.7777777777777777 0.7777777777777777 0 1 0 1.5555555555555554 0 0.7777777777777777 0.7777777777777777 0 1 0 -1.5555555555555554 0" stroke-width="0.4444"></path>
    <path fill="#ffffff" d="M17.044444444444444 22a0.7777777777777777 0.7777777777777777 0 1 0 1.5555555555555554 0 0.7777777777777777 0.7777777777777777 0 1 0 -1.5555555555555554 0" stroke-width="0.4444"></path>
    <path fill="#ffffff" d="M14.822222222222223 20a0.7777777777777777 0.7777777777777777 0 1 0 1.5555555555555554 0 0.7777777777777777 0.7777777777777777 0 1 0 -1.5555555555555554 0" stroke-width="0.4444"></path>
    <path fill="#ffffff" d="M13.044444444444444 18a0.7777777777777777 0.7777777777777777 0 1 0 1.5555555555555554 0 0.7777777777777777 0.7777777777777777 0 1 0 -1.5555555555555554 0" stroke-width="0.4444"></path>
    <path fill="#ffffff" d="M9.488888888888889 14a0.7777777777777777 0.7777777777777777 0 1 0 1.5555555555555554 0 0.7777777777777777 0.7777777777777777 0 1 0 -1.5555555555555554 0" stroke-width="0.4444"></path>
    <path fill="#ffffff" d="M11.266666666666667 16a0.7777777777777777 0.7777777777777777 0 1 0 1.5555555555555554 0 0.7777777777777777 0.7777777777777777 0 1 0 -1.5555555555555554 0" stroke-width="0.4444"></path>
    <path fill="#ffffff" d="M5.933333333333333 10a0.7777777777777777 0.7777777777777777 0 1 0 1.5555555555555554 0 0.7777777777777777 0.7777777777777777 0 1 0 -1.5555555555555554 0" stroke-width="0.4444"></path>
    <path fill="#ffffff" d="M7.711111111111111 12a0.7777777777777777 0.7777777777777777 0 1 0 1.5555555555555554 0 0.7777777777777777 0.7777777777777777 0 1 0 -1.5555555555555554 0" stroke-width="0.4444"></path>
  </g>
  <g id="line">
    <path fill="none" stroke="#000000" stroke-linecap="round" stroke-linejoin="round" stroke-width="0.8889" d="M2.2222222222222223 7.555555555555555h27.555555555555554v16.88888888888889H2.2222222222222223Z"></path>
  </g>
</svg>