<svg id="Flag-Brazil--Streamline-Openmoji" viewBox="0 0 32 32" xmlns="http://www.w3.org/2000/svg" height="32" width="32">
  <desc>
    Flag Brazil Streamline Emoji: https://streamlinehq.com
  </desc>
  <g id="color">
    <path fill="#5c9e31" d="M2.2222222222222223 7.555555555555555h27.555555555555554v16.88888888888889H2.2222222222222223Z" stroke-width="0.4444"></path>
    <path fill="#fcea2b" d="m26.232444444444443 16.01022222222222 -10.292 6.502222222222223 -10.172888888888888 -6.383111111111111 10.292 -6.502222222222223 10.172888888888888 6.383111111111111z" stroke-width="0.4444"></path>
    <path fill="#1e50a0" d="M12 16a4 4 0 1 0 8 0 4 4 0 1 0 -8 0" stroke-width="0.4444"></path>
    <path fill="#ffffff" d="M19.62608888888889 17.680666666666667a4.0203999999999995 4.0203999999999995 0 0 0 0.30946666666666667 -1.0038666666666667 5.099333333333333 5.099333333333333 0 0 0 -7.767377777777778 -1.7962222222222222 3.992844444444444 3.992844444444444 0 0 0 -0.15684444444444443 0.8949777777777778 4.888133333333333 4.888133333333333 0 0 1 7.614755555555554 1.9051111111111112Z" stroke-width="0.4444"></path>
  </g>
  <g id="line">
    <path fill="none" stroke="#000000" stroke-linecap="round" stroke-linejoin="round" stroke-width="0.8889" d="M2.2222222222222223 7.555555555555555h27.555555555555554v16.88888888888889H2.2222222222222223Z"></path>
  </g>
</svg>