<svg id="Flag-Canada--Streamline-Openmoji" viewBox="0 0 32 32" xmlns="http://www.w3.org/2000/svg" height="32" width="32">
  <desc>
    Flag Canada Streamline Emoji: https://streamlinehq.com
  </desc>
  <g id="color">
    <path fill="#ffffff" d="M2.2222222222222223 7.555555555555555h27.555555555555554v16.88888888888889H2.2222222222222223Z" stroke-width="0.4444"></path>
    <path fill="#d22f27" d="M2.2222222222222223 7.555555555555555h7.555555555555555v16.88888888888889H2.2222222222222223Z" stroke-width="0.4444"></path>
    <path fill="#d22f27" d="M22.22222222222222 7.555555555555555h7.555555555555555v16.88888888888889H22.22222222222222Z" stroke-width="0.4444"></path>
    <path fill="#d22f27" stroke="#d22f27" stroke-linecap="round" stroke-linejoin="round" stroke-width="0.8889" d="m16 20.444444444444443 0 -2.2222222222222223"></path>
    <path fill="#d22f27" stroke="#d22f27" stroke-linecap="round" stroke-linejoin="round" stroke-width="0.8889" d="m16 18.22222222222222 3.022222222222222 0 -0.35555555555555557 -0.8888888888888888 1.7777777777777777 -1.7777777777777777 0 -1.3333333333333333 -1.3333333333333333 0 -1.7777777777777777 1.7777777777777777 0 -3.1111111111111107 -1.3333333333333333 -1.3333333333333333"></path>
    <path fill="#d22f27" stroke="#d22f27" stroke-linecap="round" stroke-linejoin="round" stroke-width="0.8889" d="m16 18.22222222222222 -3.022222222222222 0 0.35555555555555557 -0.8888888888888888 -1.7777777777777777 -1.7777777777777777 0 -1.3333333333333333 1.3333333333333333 0 1.7777777777777777 1.7777777777777777 0 -3.1111111111111107 1.3333333333333333 -1.3333333333333333"></path>
  </g>
  <g id="line">
    <path fill="none" stroke="#000000" stroke-linecap="round" stroke-linejoin="round" stroke-width="0.8889" d="M2.2222222222222223 7.555555555555555h27.555555555555554v16.88888888888889H2.2222222222222223Z"></path>
  </g>
</svg>