<svg id="Flag-Cape-Verde--Streamline-Openmoji" viewBox="0 0 32 32" xmlns="http://www.w3.org/2000/svg" height="32" width="32">
  <desc>
    Flag Cape Verde Streamline Emoji: https://streamlinehq.com
  </desc>
  <g id="color">
    <path fill="#1e50a0" d="M2.2222222222222223 7.555555555555555h27.555555555555554v16.88888888888889H2.2222222222222223Z" stroke-width="0.4444"></path>
    <path fill="#d22f27" stroke="#ffffff" stroke-linecap="round" stroke-linejoin="round" stroke-width="0.8889" d="M2.2222222222222223 18.22222222222222h27.555555555555554v2.6666666666666665H2.2222222222222223Z"></path>
    <g>
      <g>
        <path fill="#f1b31c" d="M10.377777777777778 22.666666666666664a0.7777777777777777 0.7777777777777777 0 1 0 1.5555555555555554 0 0.7777777777777777 0.7777777777777777 0 1 0 -1.5555555555555554 0" stroke-width="0.4444"></path>
        <path fill="#f1b31c" d="M10.377777777777778 16.444444444444443a0.7777777777777777 0.7777777777777777 0 1 0 1.5555555555555554 0 0.7777777777777777 0.7777777777777777 0 1 0 -1.5555555555555554 0" stroke-width="0.4444"></path>
      </g>
      <g>
        <path fill="#f1b31c" d="M12.206444444444445 22.072488888888888a0.7777777777777777 0.7777777777777777 0 1 0 1.5555555555555554 0 0.7777777777777777 0.7777777777777777 0 1 0 -1.5555555555555554 0" stroke-width="0.4444"></path>
        <path fill="#f1b31c" d="M8.54911111111111 17.038622222222223a0.7777777777777777 0.7777777777777777 0 1 0 1.5555555555555554 0 0.7777777777777777 0.7777777777777777 0 1 0 -1.5555555555555554 0" stroke-width="0.4444"></path>
      </g>
      <g>
        <path fill="#f1b31c" d="M12.206444444444445 17.038622222222223a0.7777777777777777 0.7777777777777777 0 1 0 1.5555555555555554 0 0.7777777777777777 0.7777777777777777 0 1 0 -1.5555555555555554 0" stroke-width="0.4444"></path>
        <path fill="#f1b31c" d="M8.54911111111111 22.072488888888888a0.7777777777777777 0.7777777777777777 0 1 0 1.5555555555555554 0 0.7777777777777777 0.7777777777777777 0 1 0 -1.5555555555555554 0" stroke-width="0.4444"></path>
      </g>
      <g>
        <path fill="#f1b31c" d="M13.336622222222221 18.594177777777777a0.7777777777777777 0.7777777777777777 0 1 0 1.5555555555555554 0 0.7777777777777777 0.7777777777777777 0 1 0 -1.5555555555555554 0" stroke-width="0.4444"></path>
        <path fill="#f1b31c" d="M7.4189333333333325 20.51693333333333a0.7777777777777777 0.7777777777777777 0 1 0 1.5555555555555554 0 0.7777777777777777 0.7777777777777777 0 1 0 -1.5555555555555554 0" stroke-width="0.4444"></path>
      </g>
      <g>
        <path fill="#f1b31c" d="M13.336622222222221 20.51693333333333a0.7777777777777777 0.7777777777777777 0 1 0 1.5555555555555554 0 0.7777777777777777 0.7777777777777777 0 1 0 -1.5555555555555554 0" stroke-width="0.4444"></path>
        <path fill="#f1b31c" d="M7.4189333333333325 18.594177777777777a0.7777777777777777 0.7777777777777777 0 1 0 1.5555555555555554 0 0.7777777777777777 0.7777777777777777 0 1 0 -1.5555555555555554 0" stroke-width="0.4444"></path>
      </g>
    </g>
  </g>
  <g id="line">
    <path fill="none" stroke="#000000" stroke-linecap="round" stroke-linejoin="round" stroke-width="0.8889" d="M2.2222222222222223 7.555555555555555h27.555555555555554v16.88888888888889H2.2222222222222223Z"></path>
  </g>
</svg>