<svg id="Flag-Croatia--Streamline-Openmoji" viewBox="0 0 32 32" xmlns="http://www.w3.org/2000/svg" height="32" width="32">
  <desc>
    Flag Croatia Streamline Emoji: https://streamlinehq.com
  </desc>
  <g id="color">
    <g>
      <path fill="#1e50a0" d="M2.2222222222222223 7.555555555555555h27.555555555555554v16.88888888888889H2.2222222222222223Z" stroke-width="0.4444"></path>
      <path fill="#d22f27" d="M2.2222222222222223 7.555555555555555h27.555555555555554v5.777777777777778H2.2222222222222223Z" stroke-width="0.4444"></path>
      <path fill="#ffffff" d="M2.2222222222222223 13.333333333333332h27.555555555555554v5.333333333333333H2.2222222222222223Z" stroke-width="0.4444"></path>
    </g>
    <g>
      <path fill="#d22f27" d="M18 19.46302222222222A2.9819111111111107 2.9819111111111107 0 0 0 18.883777777777777 18.666666666666664H18Z" stroke-width="0.4444"></path>
      <path fill="#ffffff" d="M16.666666666666664 18.666666666666664v1.2799999999999998a3.750133333333333 3.750133333333333 0 0 0 1.3333333333333333 -0.48342222222222214V18.666666666666664Z" stroke-width="0.4444"></path>
      <path fill="#d22f27" d="M15.333333333333332 18.666666666666664v1.2799999999999998a4.1761333333333335 4.1761333333333335 0 0 0 1.3333333333333333 0V18.666666666666664Z" stroke-width="0.4444"></path>
      <path fill="#ffffff" d="M14 18.666666666666664v0.7963555555555555a3.750133333333333 3.750133333333333 0 0 0 1.3333333333333333 0.48342222222222214V18.666666666666664Z" stroke-width="0.4444"></path>
      <path fill="#d22f27" d="M13.116222222222222 18.666666666666664A2.9819111111111107 2.9819111111111107 0 0 0 14 19.46302222222222V18.666666666666664Z" stroke-width="0.4444"></path>
      <path fill="#ffffff" d="M18 18.666666666666664h0.8837777777777777A2.2611999999999997 2.2611999999999997 0 0 0 19.333333333333332 17.333333333333332h-1.3333333333333333Z" stroke-width="0.4444"></path>
      <path fill="#d22f27" d="M16.666666666666664 17.333333333333332h1.3333333333333333v1.3333333333333333h-1.3333333333333333Z" stroke-width="0.4444"></path>
      <path fill="#ffffff" d="M15.333333333333332 17.333333333333332h1.3333333333333333v1.3333333333333333h-1.3333333333333333Z" stroke-width="0.4444"></path>
      <path fill="#d22f27" d="M14 17.333333333333332h1.3333333333333333v1.3333333333333333h-1.3333333333333333Z" stroke-width="0.4444"></path>
      <path fill="#ffffff" d="M14 17.333333333333332h-1.3333333333333333a2.2611999999999997 2.2611999999999997 0 0 0 0.44955555555555554 1.3333333333333333H14Z" stroke-width="0.4444"></path>
      <path fill="#d22f27" d="M18 16h1.3333333333333333v1.3333333333333333h-1.3333333333333333Z" stroke-width="0.4444"></path>
      <path fill="#ffffff" d="M16.666666666666664 16h1.3333333333333333v1.3333333333333333h-1.3333333333333333Z" stroke-width="0.4444"></path>
      <path fill="#d22f27" d="M15.333333333333332 16h1.3333333333333333v1.3333333333333333h-1.3333333333333333Z" stroke-width="0.4444"></path>
      <path fill="#ffffff" d="M14 16h1.3333333333333333v1.3333333333333333h-1.3333333333333333Z" stroke-width="0.4444"></path>
      <path fill="#d22f27" d="M12.666666666666666 16h1.3333333333333333v1.3333333333333333h-1.3333333333333333Z" stroke-width="0.4444"></path>
      <path fill="#ffffff" d="M18 14.666666666666666h1.3333333333333333v1.3333333333333333h-1.3333333333333333Z" stroke-width="0.4444"></path>
      <path fill="#d22f27" d="M16.666666666666664 14.666666666666666h1.3333333333333333v1.3333333333333333h-1.3333333333333333Z" stroke-width="0.4444"></path>
      <path fill="#ffffff" d="M15.333333333333332 14.666666666666666h1.3333333333333333v1.3333333333333333h-1.3333333333333333Z" stroke-width="0.4444"></path>
      <path fill="#d22f27" d="M14 14.666666666666666h1.3333333333333333v1.3333333333333333h-1.3333333333333333Z" stroke-width="0.4444"></path>
      <path fill="#ffffff" d="M12.666666666666666 14.666666666666666h1.3333333333333333v1.3333333333333333h-1.3333333333333333Z" stroke-width="0.4444"></path>
      <path fill="#d22f27" d="M18 13.333333333333332h1.3333333333333333v1.3333333333333333h-1.3333333333333333Z" stroke-width="0.4444"></path>
      <path fill="#ffffff" d="M16.666666666666664 13.333333333333332h1.3333333333333333v1.3333333333333333h-1.3333333333333333Z" stroke-width="0.4444"></path>
      <path fill="#d22f27" d="M15.333333333333332 13.333333333333332h1.3333333333333333v1.3333333333333333h-1.3333333333333333Z" stroke-width="0.4444"></path>
      <path fill="#ffffff" d="M14 13.333333333333332h1.3333333333333333v1.3333333333333333h-1.3333333333333333Z" stroke-width="0.4444"></path>
      <path fill="#d22f27" d="M12.666666666666666 13.333333333333332h1.3333333333333333v1.3333333333333333h-1.3333333333333333Z" stroke-width="0.4444"></path>
    </g>
    <path fill="none" stroke="#d22f27" stroke-miterlimit="10" d="M19.333333333333332 17.333333333333332c0 1.4727555555555554 -1.4924 2.6666666666666665 -3.333333333333333 2.6666666666666665s-3.333333333333333 -1.1939111111111111 -3.333333333333333 -2.6666666666666665v-4h6.666666666666666Z" stroke-width="0.4444"></path>
    <g>
      <path fill="#61b2e4" stroke="#61b2e4" stroke-linecap="round" stroke-linejoin="round" d="m13.416533333333334 10.831955555555554 0.7345777777777778 -0.8280888888888889 0.9749777777777778 0.5476L16 9.856933333333332l0.8739111111111111 0.6945333333333333 0.9749777777777778 -0.5476 0.7345777777777778 0.8280888888888889 1.0551555555555554 -0.3875111111111111 0.5743111111111111 0.9351111111111111L19.333333333333332 13.333333333333332a7.083333333333333 7.083333333333333 0 0 0 -6.666666666666666 0l-0.8795999999999999 -1.9537777777777776 0.5743111111111111 -0.9351111111111111Z" stroke-width="0.4444"></path>
      <path fill="#1e50a0" stroke="#1e50a0" stroke-miterlimit="10" stroke-width="0.1111" d="m16.719555555555555 12.537777777777777 0.1542222222222222 -1.9862222222222223 0.975111111111111 -0.5475555555555556 0.7346666666666667 0.828 -0.5062222222222222 1.9813333333333334 -1.3577777777777778 -0.27555555555555555z"></path>
      <path fill="#1e50a0" stroke="#1e50a0" stroke-miterlimit="10" stroke-width="0.1111" d="m15.280444444444443 12.537777777777777 -0.1542222222222222 -1.9862222222222223 -0.975111111111111 -0.5475555555555556 -0.7346666666666667 0.828 0.5062222222222222 1.9813333333333334 1.3577777777777778 -0.27555555555555555z"></path>
      <path fill="none" stroke="#1e50a0" stroke-linecap="round" stroke-linejoin="round" d="m13.416533333333334 10.831955555555554 0.7345777777777778 -0.8280888888888889 0.9749777777777778 0.5476L16 9.856933333333332l0.8739111111111111 0.6945333333333333 0.9749777777777778 -0.5476 0.7345777777777778 0.8280888888888889 1.0551555555555554 -0.3875111111111111 0.5743111111111111 0.9351111111111111L19.333333333333332 13.333333333333332a7.083333333333333 7.083333333333333 0 0 0 -6.666666666666666 0l-0.8795999999999999 -1.9537777777777776 0.5743111111111111 -0.9351111111111111Z" stroke-width="0.4444"></path>
    </g>
  </g>
  <g id="line">
    <path fill="none" stroke="#000000" stroke-linecap="round" stroke-linejoin="round" stroke-width="0.8889" d="M2.2222222222222223 7.555555555555555h27.555555555555554v16.88888888888889H2.2222222222222223Z"></path>
  </g>
</svg>