<svg id="Flag-Ecuador--Streamline-Openmoji" viewBox="0 0 32 32" xmlns="http://www.w3.org/2000/svg" height="32" width="32">
  <desc>
    Flag Ecuador Streamline Emoji: https://streamlinehq.com
  </desc>
  <g id="color">
    <path fill="#fcea2b" d="M2.2222222222222223 7.555555555555555h27.555555555555554v16.88888888888889H2.2222222222222223Z" stroke-width="0.4444"></path>
    <path fill="#d22f27" d="M2.2222222222222223 20h27.555555555555554v4.444444444444445H2.2222222222222223Z" stroke-width="0.4444"></path>
    <path fill="#1e50a0" d="M2.2222222222222223 16h27.555555555555554v4H2.2222222222222223Z" stroke-width="0.4444"></path>
    <path fill="#92d3f5" d="M14 16a2 2.6666666666666665 0 1 0 4 0 2 2.6666666666666665 0 1 0 -4 0" stroke-width="0.4444"></path>
    <path fill="#5c9e31" d="M18 16c0 1.4727555555555554 -0.8954222222222221 2.6666666666666665 -2 2.6666666666666665s-2 -1.1939111111111111 -2 -2.6666666666666665Z" stroke-width="0.4444"></path>
    <path fill="none" stroke="#d22f27" stroke-miterlimit="10" stroke-width="0.8889" d="m16 20.444444444444443 0 -1.7777777777777777"></path>
    <path fill="none" stroke="#f1b31c" stroke-linecap="round" stroke-linejoin="round" stroke-width="0.8889" d="M18.695644444444444 18.666666666666664A4.857066666666666 4.857066666666666 0 0 0 19.777777777777775 15.555555555555555v-2.2222222222222223H20.444444444444443"></path>
    <path fill="none" stroke="#f1b31c" stroke-linecap="round" stroke-linejoin="round" stroke-width="0.8889" d="M11.555555555555555 13.333333333333332h0.6666666666666666v2.2222222222222223a4.857066666666666 4.857066666666666 0 0 0 1.0821333333333334 3.1111111111111107"></path>
    <path fill="none" stroke="#6a462f" stroke-linecap="round" stroke-linejoin="round" stroke-width="0.8889" d="M12.888888888888888 11.555555555555555c1.5555555555555554 -0.4444444444444444 2.333333333333333 0 3.1111111111111107 1.3333333333333333 0.7777777777777777 -1.3333333333333333 1.5555555555555554 -1.7777777777777777 3.1111111111111107 -1.3333333333333333"></path>
    <path fill="none" stroke="#d22f27" stroke-miterlimit="10" stroke-width="0.8889" d="M14 16a2 2.6666666666666665 0 1 0 4 0 2 2.6666666666666665 0 1 0 -4 0"></path>
  </g>
  <g id="line">
    <path fill="none" stroke="#000000" stroke-linecap="round" stroke-linejoin="round" stroke-width="0.8889" d="M2.2222222222222223 7.555555555555555h27.555555555555554v16.88888888888889H2.2222222222222223Z"></path>
  </g>
</svg>