<svg id="Flag-Iran--Streamline-Openmoji" viewBox="0 0 32 32" xmlns="http://www.w3.org/2000/svg" height="32" width="32">
  <desc>
    Flag Iran Streamline Emoji: https://streamlinehq.com
  </desc>
  <g id="color">
    <path fill="#d22f27" d="M2.2222222222222223 7.555555555555555h27.555555555555554v16.88888888888889H2.2222222222222223Z" stroke-width="0.4444"></path>
    <path fill="#5c9e31" d="M2.2222222222222223 7.555555555555555h27.555555555555554v5.777777777777778H2.2222222222222223Z" stroke-width="0.4444"></path>
    <path fill="#ffffff" d="M2.2222222222222223 13.333333333333332h27.555555555555554v5.333333333333333H2.2222222222222223Z" stroke-width="0.4444"></path>
    <path fill="none" stroke="#d22f27" stroke-linecap="round" stroke-linejoin="round" d="m16 14.222222222222221 0 3.5555555555555554" stroke-width="0.4444"></path>
    <path fill="none" stroke="#d22f27" stroke-linecap="round" stroke-linejoin="round" d="M16.88888888888889 14.222222222222221a1.7777777777777777 1.7777777777777777 0 0 1 0 3.5555555555555554" stroke-width="0.4444"></path>
    <path fill="none" stroke="#d22f27" stroke-linecap="round" stroke-linejoin="round" d="M16 17.77777777777778a1.778311111111111 1.778311111111111 0 0 0 0.5459999999999999 -3.007911111111111" stroke-width="0.4444"></path>
    <path fill="none" stroke="#d22f27" stroke-linecap="round" stroke-linejoin="round" d="M16 17.77777777777778a1.7783555555555552 1.7783555555555552 0 0 1 -0.5459555555555555 -3.007911111111111" stroke-width="0.4444"></path>
    <path fill="none" stroke="#d22f27" stroke-linecap="round" stroke-linejoin="round" d="M15.11111111111111 14.222222222222221a1.7777777777777777 1.7777777777777777 0 0 0 0 3.5555555555555554" stroke-width="0.4444"></path>
  </g>
  <g id="line">
    <path fill="none" stroke="#000000" stroke-linecap="round" stroke-linejoin="round" stroke-width="0.8889" d="M2.2222222222222223 7.555555555555555h27.555555555555554v16.88888888888889H2.2222222222222223Z"></path>
  </g>
</svg>