<svg id="Flag-Jordan--Streamline-Openmoji" viewBox="0 0 32 32" xmlns="http://www.w3.org/2000/svg" height="32" width="32">
  <desc>
    Flag Jordan Streamline Emoji: https://streamlinehq.com
  </desc>
  <g id="color">
    <path fill="#5c9e31" d="M2.2222222222222223 7.555555555555555h27.555555555555554v16.88888888888889H2.2222222222222223Z" stroke-width="0.4444"></path>
    <path fill="#ffffff" d="M2.2222222222222223 13.333333333333332h27.555555555555554v5.333333333333333H2.2222222222222223Z" stroke-width="0.4444"></path>
    <path d="M2.2222222222222223 7.555555555555555h27.555555555555554v5.777777777777778H2.2222222222222223Z" stroke-width="0.4444"></path>
    <path fill="#d22f27" d="M11.555555555555555 16 2.2222222222222223 24.444444444444443l0 -16.88888888888889 9.333333333333332 8.444444444444445z" stroke-width="0.4444"></path>
    <path fill="#ffffff" stroke="#ffffff" stroke-linecap="round" stroke-linejoin="round" d="m5.777777777777778 14.888888888888888 0.24711111111111111 0.6422222222222222 0.644 -0.20222222222222222 -0.33555555555555555 0.5991111111111111 0.5555555555555556 0.3902222222222222 -0.6657777777777777 0.104 0.04933333333333333 0.6888888888888889L5.777777777777778 16.642222222222223 5.283111111111111 17.11111111111111l0.04933333333333333 -0.6888888888888889 -0.6657777777777777 -0.104 0.5555555555555556 -0.3902222222222222 -0.33555555555555555 -0.5991111111111111 0.644 0.20222222222222222L5.777777777777778 14.888888888888888z" stroke-width="0.4444"></path>
  </g>
  <g id="line">
    <path fill="none" stroke="#000000" stroke-linecap="round" stroke-linejoin="round" stroke-width="0.8889" d="M2.2222222222222223 7.555555555555555h27.555555555555554v16.88888888888889H2.2222222222222223Z"></path>
  </g>
</svg>