<svg id="Flag-New-Zealand--Streamline-Openmoji" viewBox="0 0 32 32" xmlns="http://www.w3.org/2000/svg" height="32" width="32">
  <desc>
    Flag New Zealand Streamline Emoji: https://streamlinehq.com
  </desc>
  <g id="color">
    <path fill="#1e50a0" d="M2.2222222222222223 7.555555555555555h27.555555555555554v16.88888888888889H2.2222222222222223Z" stroke-width="0.4444"></path>
    <g>
      <path fill="#ffffff" d="M4.394222222222222 8 2.6666666666666665 8l0 1.0364444444444443L14.272444444444444 16 16 16l0 -1.0364444444444443L4.394222222222222 8z" stroke-width="0.4444"></path>
      <path fill="#ffffff" d="M16 9.036444444444443 16 8l-1.7275555555555555 0L2.6666666666666665 14.963555555555555 2.6666666666666665 16l1.7275555555555555 0L16 9.036444444444443z" stroke-width="0.4444"></path>
      <path fill="#ffffff" d="M2.6666666666666665 10.666666666666666h13.333333333333332v2.6666666666666665H2.6666666666666665Z" stroke-width="0.4444"></path>
      <path fill="#ffffff" d="M8 8h2.6666666666666665v8h-2.6666666666666665Z" stroke-width="0.4444"></path>
      <path fill="#d22f27" d="M8.88888888888889 8h0.8888888888888888v8h-0.8888888888888888Z" stroke-width="0.4444"></path>
      <path fill="#d22f27" d="M2.6666666666666665 11.555555555555555h13.333333333333332v0.8888888888888888H2.6666666666666665Z" stroke-width="0.4444"></path>
      <path fill="#d22f27" d="M16 14.963555555555555 13.283111111111111 13.333333333333332 11.555555555555555 13.333333333333332l4.444444444444445 2.6666666666666665 0 -1.0364444444444443z" stroke-width="0.4444"></path>
      <path fill="#d22f27" d="m16 8 -1.7275555555555555 0L10.666666666666666 10.163555555555554 10.666666666666666 10.666666666666666l0.8888888888888888 0 4.444444444444445 -2.6666666666666665z" stroke-width="0.4444"></path>
      <path fill="#d22f27" d="M2.6666666666666665 9.036444444444443 5.383555555555555 10.666666666666666 7.111111111111111 10.666666666666666 2.6666666666666665 8l0 1.0364444444444443z" stroke-width="0.4444"></path>
      <path fill="#d22f27" d="m2.6666666666666665 16 1.7275555555555555 0L8 13.836444444444444 8 13.333333333333332l-0.8888888888888888 0 -4.444444444444445 2.6666666666666665z" stroke-width="0.4444"></path>
    </g>
    <g>
      <path fill="none" stroke="#ffffff" stroke-linecap="round" stroke-linejoin="round" d="m23.37511111111111 12.116444444444443 0.7657777777777778 -0.5888888888888888 -0.9302222222222222 0.02311111111111111 -0.2662222222222222 -0.9159999999999999 -0.3084444444444444 0.9302222222222222 -0.9297777777777778 0.022666666666666665 0.739111111111111 0.5519999999999999 -0.3088888888888888 0.9297777777777778 0.7657777777777778 -0.5888888888888888 0.739111111111111 0.5519999999999999 -0.2662222222222222 -0.9159999999999999z" stroke-width="0.4444"></path>
      <path fill="none" stroke="#ffffff" stroke-linecap="round" stroke-linejoin="round" d="m23.37511111111111 20.116444444444443 0.7657777777777778 -0.5888888888888888 -0.9302222222222222 0.02311111111111111 -0.2662222222222222 -0.9159999999999999 -0.3084444444444444 0.9302222222222222 -0.9297777777777778 0.022666666666666665 0.739111111111111 0.5519999999999999 -0.3088888888888888 0.9297777777777778 0.7657777777777778 -0.5888888888888888 0.739111111111111 0.5519999999999999 -0.2662222222222222 -0.9159999999999999z" stroke-width="0.4444"></path>
      <path fill="none" stroke="#ffffff" stroke-linecap="round" stroke-linejoin="round" d="m26.930666666666667 14.338666666666667 0.7657777777777778 -0.5888888888888888 -0.9302222222222222 0.02311111111111111 -0.2662222222222222 -0.9159999999999999 -0.3084444444444444 0.9302222222222222 -0.9297777777777778 0.022666666666666665 0.739111111111111 0.5519999999999999 -0.3088888888888888 0.9297777777777778 0.7657777777777778 -0.5888888888888888 0.739111111111111 0.5519999999999999 -0.2662222222222222 -0.9159999999999999z" stroke-width="0.4444"></path>
      <path fill="none" stroke="#ffffff" stroke-linecap="round" stroke-linejoin="round" d="m20.264 15.227555555555554 0.7657777777777778 -0.5888888888888888 -0.9302222222222222 0.02311111111111111 -0.2662222222222222 -0.9159999999999999 -0.3084444444444444 0.9302222222222222 -0.9297777777777778 0.022666666666666665 0.739111111111111 0.5519999999999999 -0.3088888888888888 0.9297777777777778 0.7657777777777778 -0.5888888888888888 0.739111111111111 0.5519999999999999 -0.2662222222222222 -0.9159999999999999z" stroke-width="0.4444"></path>
    </g>
    <g>
      <path fill="#d22f27" d="m23.335555555555555 12.093777777777776 0.699111111111111 -0.5377777777777777 -0.8488888888888888 0.020888888888888887 -0.2431111111111111 -0.836 -0.28177777777777774 0.8488888888888888 -0.8484444444444444 0.020888888888888887 0.6746666666666666 0.5035555555555555 -0.28177777777777774 0.8488888888888888 0.6986666666666667 -0.5373333333333333 0.6746666666666666 0.5035555555555555 -0.2431111111111111 -0.8355555555555555z" stroke-width="0.4444"></path>
      <path fill="#d22f27" d="m23.335555555555555 20.093777777777778 0.699111111111111 -0.5377777777777777 -0.8488888888888888 0.020888888888888887 -0.2431111111111111 -0.836 -0.28177777777777774 0.8488888888888888 -0.8484444444444444 0.020888888888888887 0.6746666666666666 0.5035555555555555 -0.28177777777777774 0.8488888888888888 0.6986666666666667 -0.5373333333333333 0.6746666666666666 0.5035555555555555 -0.2431111111111111 -0.8355555555555555z" stroke-width="0.4444"></path>
      <path fill="#d22f27" d="m26.891111111111112 14.315999999999999 0.699111111111111 -0.5377777777777777 -0.8488888888888888 0.020888888888888887 -0.2431111111111111 -0.836 -0.28177777777777774 0.8488888888888888 -0.8484444444444444 0.020888888888888887 0.6746666666666666 0.5035555555555555 -0.28177777777777774 0.8488888888888888 0.6986666666666667 -0.5373333333333333 0.6746666666666666 0.5035555555555555 -0.2431111111111111 -0.8355555555555555z" stroke-width="0.4444"></path>
      <path fill="#d22f27" d="m20.224444444444444 15.204888888888888 0.699111111111111 -0.5377777777777777 -0.8488888888888888 0.020888888888888887 -0.2431111111111111 -0.836 -0.28177777777777774 0.8488888888888888 -0.8484444444444444 0.020888888888888887 0.6746666666666666 0.5035555555555555 -0.28177777777777774 0.8488888888888888 0.6986666666666667 -0.5373333333333333 0.6746666666666666 0.5035555555555555 -0.2431111111111111 -0.8355555555555555z" stroke-width="0.4444"></path>
    </g>
  </g>
  <g id="line">
    <path fill="none" stroke="#000000" stroke-linecap="round" stroke-linejoin="round" stroke-width="0.8889" d="M2.2222222222222223 7.555555555555555h27.555555555555554v16.88888888888889H2.2222222222222223Z"></path>
  </g>
</svg>