<svg id="Flag-Portugal--Streamline-Openmoji" viewBox="0 0 32 32" xmlns="http://www.w3.org/2000/svg" height="32" width="32">
  <desc>
    Flag Portugal Streamline Emoji: https://streamlinehq.com
  </desc>
  <g id="color">
    <path fill="#d22f27" d="M2.2222222222222223 7.555555555555555h27.555555555555554v16.88888888888889H2.2222222222222223Z" stroke-width="0.4444"></path>
    <path fill="#5c9e31" d="M2.2222222222222223 7.555555555555555h9.333333333333332v16.88888888888889H2.2222222222222223Z" stroke-width="0.4444"></path>
    <path fill="none" stroke="#fcea2b" stroke-miterlimit="10" stroke-width="0.8889" d="M6.222222222222221 16a5.333333333333333 5.333333333333333 0 1 0 10.666666666666666 0 5.333333333333333 5.333333333333333 0 1 0 -10.666666666666666 0"></path>
    <path fill="none" stroke="#fcea2b" stroke-linecap="round" stroke-linejoin="round" d="m11.555555555555555 10.666666666666666 0 10.666666666666666" stroke-width="0.4444"></path>
    <path fill="none" stroke="#fcea2b" stroke-linecap="round" stroke-linejoin="round" d="M11.555555555555555 17.555555555555554 7.555555555555555 19.555555555555554l8 0 -4 -2z" stroke-width="0.4444"></path>
    <path fill="none" stroke="#fcea2b" stroke-linecap="round" stroke-linejoin="round" d="m11.555555555555555 14.888888888888888 4 -2.444444444444444 -3.7777777777777777 0.6666666666666666L7.555555555555555 12.444444444444443l4 2.444444444444444z" stroke-width="0.4444"></path>
    <path fill="none" stroke="#fcea2b" stroke-linecap="round" stroke-linejoin="round" d="m16.88888888888889 16 -5.333333333333333 2.2222222222222223 -5.333333333333333 -2.2222222222222223 5.333333333333333 -2.2222222222222223 5.333333333333333 2.2222222222222223z" stroke-width="0.4444"></path>
    <path fill="#ffffff" stroke="#d22f27" stroke-linecap="round" stroke-linejoin="round" stroke-width="0.8889" d="M8.977777777777776 12.888888888888888h5.155555555555555v4.488888888888888c0 1.1111111111111112 -1.1555555555555554 2.0444444444444443 -2.5777777777777775 2.0444444444444443h0c-1.4222222222222223 0 -2.5777777777777775 -0.9333333333333333 -2.5777777777777775 -2.0444444444444443V12.888888888888888Z"></path>
    <path fill="#1e50a0" stroke="#1e50a0" stroke-linecap="round" stroke-linejoin="round" d="M11.244444444444444 14.577777777777776a0.31111111111111106 0.31111111111111106 0 1 0 0.6222222222222221 0 0.31111111111111106 0.31111111111111106 0 1 0 -0.6222222222222221 0" stroke-width="0.4444"></path>
    <path fill="#1e50a0" stroke="#1e50a0" stroke-linecap="round" stroke-linejoin="round" d="M11.244444444444444 17.2a0.31111111111111106 0.31111111111111106 0 1 0 0.6222222222222221 0 0.31111111111111106 0.31111111111111106 0 1 0 -0.6222222222222221 0" stroke-width="0.4444"></path>
    <path fill="#1e50a0" stroke="#1e50a0" stroke-linecap="round" stroke-linejoin="round" d="M11.244444444444444 15.866666666666667a0.31111111111111106 0.31111111111111106 0 1 0 0.6222222222222221 0 0.31111111111111106 0.31111111111111106 0 1 0 -0.6222222222222221 0" stroke-width="0.4444"></path>
    <path fill="#1e50a0" stroke="#1e50a0" stroke-linecap="round" stroke-linejoin="round" d="M12.577777777777778 15.866666666666667a0.31111111111111106 0.31111111111111106 0 1 0 0.6222222222222221 0 0.31111111111111106 0.31111111111111106 0 1 0 -0.6222222222222221 0" stroke-width="0.4444"></path>
    <path fill="#1e50a0" stroke="#1e50a0" stroke-linecap="round" stroke-linejoin="round" d="M9.911111111111111 15.866666666666667a0.31111111111111106 0.31111111111111106 0 1 0 0.6222222222222221 0 0.31111111111111106 0.31111111111111106 0 1 0 -0.6222222222222221 0" stroke-width="0.4444"></path>
  </g>
  <g id="line">
    <path fill="none" stroke="#000000" stroke-linecap="round" stroke-linejoin="round" stroke-width="0.8889" d="M2.2222222222222223 7.555555555555555h27.555555555555554v16.88888888888889H2.2222222222222223Z"></path>
  </g>
</svg>