<svg id="Flag-South-Korea--Streamline-Openmoji" viewBox="0 0 32 32" xmlns="http://www.w3.org/2000/svg" height="32" width="32">
  <desc>
    Flag South Korea Streamline Emoji: https://streamlinehq.com
  </desc>
  <g id="color">
    <path fill="#ffffff" d="M2.2222222222222223 7.555555555555555h27.555555555555554v16.88888888888889H2.2222222222222223Z" stroke-width="0.4444"></path>
    <g>
      <path fill="#d22f27" d="M12 16a4 4 0 1 0 8 0 4 4 0 1 0 -8 0" stroke-width="0.4444"></path>
      <g>
        <path fill="#1e50a0" d="M12.500755555555555 14.078044444444444A1.9965333333333335 1.9965333333333335 0 0 0 16 16c0.010222222222222221 -0.017777777777777778 0.01502222222222222 -0.0368 0.02462222222222222 -0.05466666666666666l0.01031111111111111 0.006133333333333333a1.9969777777777775 1.9969777777777775 0 0 1 3.433022222222222 2.04l0.0013333333333333333 0.0007999999999999999a3.996355555555555 3.996355555555555 0 0 1 -6.968533333333333 -3.9142666666666663Z" stroke-width="0.4444"></path>
        <path fill="#1e50a0" d="m12.591688888888887 13.905288888888888 0.008888888888888889 0.0051111111111111105c-0.013333333333333332 0.020444444444444442 -0.029688888888888886 0.03777777777777778 -0.0424 0.058888888888888886 0.012044444444444443 -0.020666666666666667 0.020888888888888887 -0.0436 0.03351111111111111 -0.06399999999999999Z" stroke-width="0.4444"></path>
      </g>
    </g>
    <g>
      <g>
        <path fill="none" stroke="#000000" stroke-linecap="round" stroke-linejoin="round" d="m10.76982222222222 18.623066666666663 1.3333333333333333 2.309422222222222" stroke-width="0.4444"></path>
        <path fill="none" stroke="#000000" stroke-linecap="round" stroke-linejoin="round" d="m9.230222222222222 19.511955555555552 1.3333333333333333 2.309422222222222" stroke-width="0.4444"></path>
        <path fill="none" stroke="#000000" stroke-linecap="round" stroke-linejoin="round" d="m10 19.06751111111111 0.4444444444444444 0.7698222222222222" stroke-width="0.4444"></path>
        <path fill="none" stroke="#000000" stroke-linecap="round" stroke-linejoin="round" d="m10.888888888888888 20.60711111111111 0.4444444444444444 0.7698222222222222" stroke-width="0.4444"></path>
      </g>
      <g>
        <path fill="none" stroke="#000000" stroke-linecap="round" stroke-linejoin="round" d="m20.22222222222222 21.376933333333334 0.4444444444444444 -0.7698222222222222" stroke-width="0.4444"></path>
        <path fill="none" stroke="#000000" stroke-linecap="round" stroke-linejoin="round" d="m21.11111111111111 19.837333333333333 0.4444444444444444 -0.7698222222222222" stroke-width="0.4444"></path>
        <path fill="none" stroke="#000000" stroke-linecap="round" stroke-linejoin="round" d="m20.992044444444446 21.821377777777776 0.4444444444444444 -0.7698222222222222" stroke-width="0.4444"></path>
        <path fill="none" stroke="#000000" stroke-linecap="round" stroke-linejoin="round" d="m21.880933333333335 20.281777777777776 0.4444444444444444 -0.7698222222222222" stroke-width="0.4444"></path>
        <path fill="none" stroke="#000000" stroke-linecap="round" stroke-linejoin="round" d="m19.452444444444442 20.932488888888887 0.4444444444444444 -0.7698222222222222" stroke-width="0.4444"></path>
        <path fill="none" stroke="#000000" stroke-linecap="round" stroke-linejoin="round" d="m20.34133333333333 19.392888888888887 0.4444444444444444 -0.7698222222222222" stroke-width="0.4444"></path>
      </g>
      <g>
        <path fill="none" stroke="#000000" stroke-linecap="round" stroke-linejoin="round" d="m9.230222222222222 12.488044444444443 1.3333333333333333 -2.309422222222222" stroke-width="0.4444"></path>
        <path fill="none" stroke="#000000" stroke-linecap="round" stroke-linejoin="round" d="m10 12.932488888888887 1.3333333333333333 -2.309422222222222" stroke-width="0.4444"></path>
        <path fill="none" stroke="#000000" stroke-linecap="round" stroke-linejoin="round" d="m10.76982222222222 13.376933333333332 1.3333333333333333 -2.309422222222222" stroke-width="0.4444"></path>
      </g>
      <g>
        <path fill="none" stroke="#000000" stroke-linecap="round" stroke-linejoin="round" d="m19.89688888888889 11.067511111111111 0.4444444444444444 0.7698222222222222" stroke-width="0.4444"></path>
        <path fill="none" stroke="#000000" stroke-linecap="round" stroke-linejoin="round" d="m20.785777777777778 12.60711111111111 0.4444444444444444 0.7698222222222222" stroke-width="0.4444"></path>
        <path fill="none" stroke="#000000" stroke-linecap="round" stroke-linejoin="round" d="m21.43648888888889 10.178622222222222 0.4444444444444444 0.7698222222222222" stroke-width="0.4444"></path>
        <path fill="none" stroke="#000000" stroke-linecap="round" stroke-linejoin="round" d="m22.325377777777778 11.718222222222222 0.4444444444444444 0.7698222222222222" stroke-width="0.4444"></path>
        <path fill="none" stroke="#000000" stroke-linecap="round" stroke-linejoin="round" d="m20.666666666666664 10.623066666666666 1.3333333333333333 2.309422222222222" stroke-width="0.4444"></path>
      </g>
    </g>
  </g>
  <g id="line">
    <path fill="none" stroke="#000000" stroke-linecap="round" stroke-linejoin="round" stroke-width="0.8889" d="M2.2222222222222223 7.555555555555555h27.555555555555554v16.88888888888889H2.2222222222222223Z"></path>
  </g>
</svg>