<svg id="Flag-Spain--Streamline-Openmoji" viewBox="0 0 32 32" xmlns="http://www.w3.org/2000/svg" height="32" width="32">
  <desc>
    Flag Spain Streamline Emoji: https://streamlinehq.com
  </desc>
  <g id="color">
    <path fill="#f1b31c" d="M2.2222222222222223 7.555555555555555h27.555555555555554v16.88888888888889H2.2222222222222223Z" stroke-width="0.4444"></path>
    <path fill="#d22f27" d="M10.222222222222221 14.666666666666666v3.1111111111111107a0.891511111111111 0.891511111111111 0 0 1 -0.8888888888888888 0.8888888888888888h-1.7777777777777777a0.891511111111111 0.891511111111111 0 0 1 -0.8888888888888888 -0.8888888888888888v-3.1111111111111107" stroke-width="0.4444"></path>
    <path fill="#d22f27" d="M2.2222222222222223 7.555555555555555h27.555555555555554v4H2.2222222222222223Z" stroke-width="0.4444"></path>
    <path fill="#d22f27" d="M2.2222222222222223 20.444444444444443h27.555555555555554v4H2.2222222222222223Z" stroke-width="0.4444"></path>
    <path fill="#f1b31c" d="M8.444444444444445 14.666666666666666h1.7777777777777777v1.7777777777777777h-1.7777777777777777Z" stroke-width="0.4444"></path>
    <path fill="#6a462f" d="M7.777777777777778 16.444444444444443a0.6666666666666666 0.6666666666666666 0 1 0 1.3333333333333333 0 0.6666666666666666 0.6666666666666666 0 1 0 -1.3333333333333333 0" stroke-width="0.4444"></path>
    <g>
      <path fill="none" stroke="#6a462f" stroke-linecap="round" stroke-linejoin="round" stroke-width="0.8889" d="m12 14.666666666666666 0 4"></path>
      <path fill="none" stroke="#6a462f" stroke-linecap="round" stroke-linejoin="round" stroke-width="0.8889" d="m4.888888888888888 14.666666666666666 0 4"></path>
      <path fill="none" stroke="#6a462f" stroke-linecap="round" stroke-linejoin="round" stroke-width="0.8889" d="M6.666666666666666 13.333333333333332a3.807911111111111 3.807911111111111 0 0 1 1.7777777777777777 -0.4444444444444444"></path>
      <path fill="none" stroke="#6a462f" stroke-linecap="round" stroke-linejoin="round" stroke-width="0.8889" d="M10.222222222222221 13.333333333333332a3.807911111111111 3.807911111111111 0 0 0 -1.7777777777777777 -0.4444444444444444"></path>
      <path fill="none" stroke="#6a462f" stroke-linecap="round" stroke-linejoin="round" stroke-width="0.8889" d="m6.666666666666666 14.666666666666666 3.5555555555555554 0"></path>
      <path fill="none" stroke="#6a462f" stroke-linecap="round" stroke-linejoin="round" stroke-width="0.8889" d="M10.222222222222221 14.666666666666666v3.1111111111111107a0.891511111111111 0.891511111111111 0 0 1 -0.8888888888888888 0.8888888888888888h-1.7777777777777777a0.891511111111111 0.891511111111111 0 0 1 -0.8888888888888888 -0.8888888888888888v-3.1111111111111107"></path>
      <path fill="none" stroke="#6a462f" stroke-linecap="round" stroke-linejoin="round" stroke-width="0.8889" d="m4.444444444444445 18.666666666666664 0.8888888888888888 0"></path>
      <path fill="none" stroke="#6a462f" stroke-linecap="round" stroke-linejoin="round" stroke-width="0.8889" d="m11.555555555555555 18.666666666666664 0.8888888888888888 0"></path>
    </g>
  </g>
  <g id="line">
    <path fill="none" stroke="#000000" stroke-linecap="round" stroke-linejoin="round" stroke-width="0.8889" d="M2.2222222222222223 7.555555555555555h27.555555555555554v16.88888888888889H2.2222222222222223Z"></path>
  </g>
</svg>