<svg id="Flag-Tunisia--Streamline-Openmoji" viewBox="0 0 32 32" xmlns="http://www.w3.org/2000/svg" height="32" width="32">
  <desc>
    Flag Tunisia Streamline Emoji: https://streamlinehq.com
  </desc>
  <g id="color">
    <path fill="#d22f27" d="M2.2222222222222223 7.555555555555555h27.555555555555554v16.88888888888889H2.2222222222222223Z" stroke-width="0.4444"></path>
    <path fill="#ffffff" d="M12 16a4 4 0 1 0 8 0 4 4 0 1 0 -8 0" stroke-width="0.4444"></path>
    <path fill="#d22f27" stroke="#d22f27" stroke-linecap="round" stroke-linejoin="round" d="M16.899066666666666 18.095244444444443a2.095244444444444 2.095244444444444 0 1 1 0.9595111111111111 -3.96 2.6666666666666665 2.6666666666666665 0 1 0 0 3.7295111111111114 2.1124444444444443 2.1124444444444443 0 0 1 -0.9595111111111111 0.23048888888888885Z" stroke-width="0.4444"></path>
    <path fill="#d22f27" stroke="#d22f27" stroke-linecap="round" stroke-linejoin="round" d="m17.06133333333333 17.204444444444444 -0.06666666666666667 -2.340888888888889 1.3457777777777777 1.839111111111111 -2.111111111111111 -0.6351111111111111 2.0697777777777775 -0.8115555555555556 -1.2377777777777779 1.9484444444444444z" stroke-width="0.4444"></path>
  </g>
  <g id="line">
    <path fill="none" stroke="#000000" stroke-linecap="round" stroke-linejoin="round" stroke-width="0.8889" d="M2.2222222222222223 7.555555555555555h27.555555555555554v16.88888888888889H2.2222222222222223Z"></path>
  </g>
</svg>