<svg id="Flag-U.S.-Outlying-Islands--Streamline-Openmoji" viewBox="0 0 32 32" xmlns="http://www.w3.org/2000/svg" height="32" width="32">
  <desc>
    Flag U.s. Outlying Islands Streamline Emoji: https://streamlinehq.com
  </desc>
  <g id="color">
    <path fill="#ffffff" d="M2.2222222222222223 7.555555555555555h27.555555555555554v16.88888888888889H2.2222222222222223Z" stroke-width="0.4444"></path>
    <path fill="#d22f27" d="M2.2222222222222223 7.555555555555555h27.555555555555554v2.2222222222222223H2.2222222222222223Z" stroke-width="0.4444"></path>
    <path fill="#d22f27" d="M2.2222222222222223 11.555555555555555h27.555555555555554v1.7777777777777777H2.2222222222222223Z" stroke-width="0.4444"></path>
    <path fill="#d22f27" d="M2.2222222222222223 15.11111111111111h27.555555555555554v1.7777777777777777H2.2222222222222223Z" stroke-width="0.4444"></path>
    <path fill="#1e50a0" d="M2.2222222222222223 7.555555555555555h14.222222222222221v9.333333333333332H2.2222222222222223Z" stroke-width="0.4444"></path>
    <path fill="#d22f27" d="M2.2222222222222223 18.666666666666664h27.555555555555554v1.7777777777777777H2.2222222222222223Z" stroke-width="0.4444"></path>
    <path fill="#ffffff" d="M3.222222222222222 9.777777777777777a0.7777777777777777 0.7777777777777777 0 1 0 1.5555555555555554 0 0.7777777777777777 0.7777777777777777 0 1 0 -1.5555555555555554 0" stroke-width="0.4444"></path>
    <path fill="#ffffff" d="M6.777777777777778 9.777777777777777a0.7777777777777777 0.7777777777777777 0 1 0 1.5555555555555554 0 0.7777777777777777 0.7777777777777777 0 1 0 -1.5555555555555554 0" stroke-width="0.4444"></path>
    <path fill="#ffffff" d="M10.333333333333332 9.777777777777777a0.7777777777777777 0.7777777777777777 0 1 0 1.5555555555555554 0 0.7777777777777777 0.7777777777777777 0 1 0 -1.5555555555555554 0" stroke-width="0.4444"></path>
    <path fill="#ffffff" d="M13.888888888888888 9.777777777777777a0.7777777777777777 0.7777777777777777 0 1 0 1.5555555555555554 0 0.7777777777777777 0.7777777777777777 0 1 0 -1.5555555555555554 0" stroke-width="0.4444"></path>
    <path fill="#ffffff" d="M12.11111111111111 11.555555555555555a0.7777777777777777 0.7777777777777777 0 1 0 1.5555555555555554 0 0.7777777777777777 0.7777777777777777 0 1 0 -1.5555555555555554 0" stroke-width="0.4444"></path>
    <path fill="#ffffff" d="M8.555555555555555 11.555555555555555a0.7777777777777777 0.7777777777777777 0 1 0 1.5555555555555554 0 0.7777777777777777 0.7777777777777777 0 1 0 -1.5555555555555554 0" stroke-width="0.4444"></path>
    <path fill="#ffffff" d="M5 11.555555555555555a0.7777777777777777 0.7777777777777777 0 1 0 1.5555555555555554 0 0.7777777777777777 0.7777777777777777 0 1 0 -1.5555555555555554 0" stroke-width="0.4444"></path>
    <path fill="#ffffff" d="M3.222222222222222 13.333333333333332a0.7777777777777777 0.7777777777777777 0 1 0 1.5555555555555554 0 0.7777777777777777 0.7777777777777777 0 1 0 -1.5555555555555554 0" stroke-width="0.4444"></path>
    <path fill="#ffffff" d="M6.777777777777778 13.333333333333332a0.7777777777777777 0.7777777777777777 0 1 0 1.5555555555555554 0 0.7777777777777777 0.7777777777777777 0 1 0 -1.5555555555555554 0" stroke-width="0.4444"></path>
    <path fill="#ffffff" d="M10.333333333333332 13.333333333333332a0.7777777777777777 0.7777777777777777 0 1 0 1.5555555555555554 0 0.7777777777777777 0.7777777777777777 0 1 0 -1.5555555555555554 0" stroke-width="0.4444"></path>
    <path fill="#ffffff" d="M13.888888888888888 13.333333333333332a0.7777777777777777 0.7777777777777777 0 1 0 1.5555555555555554 0 0.7777777777777777 0.7777777777777777 0 1 0 -1.5555555555555554 0" stroke-width="0.4444"></path>
    <path fill="#ffffff" d="M12.11111111111111 15.11111111111111a0.7777777777777777 0.7777777777777777 0 1 0 1.5555555555555554 0 0.7777777777777777 0.7777777777777777 0 1 0 -1.5555555555555554 0" stroke-width="0.4444"></path>
    <path fill="#ffffff" d="M8.555555555555555 15.11111111111111a0.7777777777777777 0.7777777777777777 0 1 0 1.5555555555555554 0 0.7777777777777777 0.7777777777777777 0 1 0 -1.5555555555555554 0" stroke-width="0.4444"></path>
    <path fill="#ffffff" d="M5 15.11111111111111a0.7777777777777777 0.7777777777777777 0 1 0 1.5555555555555554 0 0.7777777777777777 0.7777777777777777 0 1 0 -1.5555555555555554 0" stroke-width="0.4444"></path>
    <path fill="#d22f27" d="M2.2222222222222223 22.22222222222222h27.555555555555554v2.2222222222222223H2.2222222222222223Z" stroke-width="0.4444"></path>
  </g>
  <g id="line">
    <path fill="none" stroke="#000000" stroke-linecap="round" stroke-linejoin="round" stroke-width="0.8889" d="M2.2222222222222223 7.555555555555555h27.555555555555554v16.88888888888889H2.2222222222222223Z"></path>
  </g>
</svg>