<svg id="Flag-Uruguay--Streamline-Openmoji" viewBox="0 0 32 32" xmlns="http://www.w3.org/2000/svg" height="32" width="32">
  <desc>
    Flag Uruguay Streamline Emoji: https://streamlinehq.com
  </desc>
  <g id="color">
    <path fill="#1e50a0" d="M2.2222222222222223 7.555555555555555h27.555555555555554v16.88888888888889H2.2222222222222223Z" stroke-width="0.4444"></path>
    <path fill="#ffffff" d="M2.2222222222222223 7.555555555555555h27.555555555555554v2.2222222222222223H2.2222222222222223Z" stroke-width="0.4444"></path>
    <path fill="#ffffff" d="M2.2222222222222223 11.555555555555555h27.555555555555554v1.7777777777777777H2.2222222222222223Z" stroke-width="0.4444"></path>
    <path fill="#ffffff" d="M2.2222222222222223 15.11111111111111h27.555555555555554v1.7777777777777777H2.2222222222222223Z" stroke-width="0.4444"></path>
    <path fill="#ffffff" d="M2.2222222222222223 18.666666666666664h27.555555555555554v1.7777777777777777H2.2222222222222223Z" stroke-width="0.4444"></path>
    <path fill="#ffffff" d="M2.2222222222222223 22.22222222222222h27.555555555555554v2.2222222222222223H2.2222222222222223Z" stroke-width="0.4444"></path>
    <path fill="#ffffff" d="M2.2222222222222223 7.555555555555555h9.333333333333332v9.333333333333332H2.2222222222222223Z" stroke-width="0.4444"></path>
    <path fill="#f1b31c" stroke="#f1b31c" stroke-linecap="round" stroke-linejoin="round" d="M6.798222222222222 11.953777777777777 7.555555555555555 10.90488888888889l-0.5297777777777777 1.1804444444444444L8.206222222222221 11.555555555555555l-1.0488888888888888 0.7573333333333333L8.444444444444445 12.444444444444443l-1.287111111111111 0.13155555555555554L8.206222222222221 13.333333333333332l-1.1804444444444444 -0.5297777777777777L7.555555555555555 13.983999999999998l-0.7573333333333333 -1.0488888888888888L6.666666666666666 14.222222222222221l-0.13155555555555554 -1.287111111111111L5.777777777777778 13.983999999999998l0.5297777777777777 -1.1804444444444444L5.127111111111111 13.333333333333332l1.0488888888888888 -0.7573333333333333L4.888888888888888 12.444444444444443l1.287111111111111 -0.13155555555555554L5.127111111111111 11.555555555555555l1.1804444444444444 0.5297777777777777L5.777777777777778 10.90488888888889l0.7573333333333333 1.0488888888888888L6.666666666666666 10.666666666666666l0.13155555555555554 1.287111111111111z" stroke-width="0.4444"></path>
  </g>
  <g id="line">
    <path fill="none" stroke="#000000" stroke-linecap="round" stroke-linejoin="round" stroke-width="0.8889" d="M2.2222222222222223 7.555555555555555h27.555555555555554v16.88888888888889H2.2222222222222223Z"></path>
  </g>
</svg>