<svg id="Flag-Uzbekistan--Streamline-Openmoji" viewBox="0 0 32 32" xmlns="http://www.w3.org/2000/svg" height="32" width="32">
  <desc>
    Flag Uzbekistan Streamline Emoji: https://streamlinehq.com
  </desc>
  <g id="color">
    <path fill="#b1cc33" d="M2.2222222222222223 7.555555555555555h27.555555555555554v16.88888888888889H2.2222222222222223Z" stroke-width="0.4444"></path>
    <path fill="#61b2e4" d="M2.2222222222222223 7.555555555555555h27.555555555555554v5.777777777777778H2.2222222222222223Z" stroke-width="0.4444"></path>
    <path fill="#ffffff" stroke="#d22f27" stroke-miterlimit="10" stroke-width="0.6667" d="M2.2222222222222223 13.444444444444443h27.555555555555554v5.111111111111111H2.2222222222222223Z"></path>
    <path fill="#ffffff" d="M12.555555555555555 9.333333333333332a0.4444444444444444 0.4444444444444444 0 1 0 0.8888888888888888 0 0.4444444444444444 0.4444444444444444 0 1 0 -0.8888888888888888 0" stroke-width="0.4444"></path>
    <path fill="#ffffff" d="M12.555555555555555 10.666666666666666a0.4444444444444444 0.4444444444444444 0 1 0 0.8888888888888888 0 0.4444444444444444 0.4444444444444444 0 1 0 -0.8888888888888888 0" stroke-width="0.4444"></path>
    <path fill="#ffffff" d="M12.555555555555555 12a0.4444444444444444 0.4444444444444444 0 1 0 0.8888888888888888 0 0.4444444444444444 0.4444444444444444 0 1 0 -0.8888888888888888 0" stroke-width="0.4444"></path>
    <path fill="#ffffff" d="M11.222222222222221 9.333333333333332a0.4444444444444444 0.4444444444444444 0 1 0 0.8888888888888888 0 0.4444444444444444 0.4444444444444444 0 1 0 -0.8888888888888888 0" stroke-width="0.4444"></path>
    <path fill="#ffffff" d="M11.222222222222221 10.666666666666666a0.4444444444444444 0.4444444444444444 0 1 0 0.8888888888888888 0 0.4444444444444444 0.4444444444444444 0 1 0 -0.8888888888888888 0" stroke-width="0.4444"></path>
    <path fill="#ffffff" d="M11.222222222222221 12a0.4444444444444444 0.4444444444444444 0 1 0 0.8888888888888888 0 0.4444444444444444 0.4444444444444444 0 1 0 -0.8888888888888888 0" stroke-width="0.4444"></path>
    <path fill="#ffffff" d="M9.888888888888888 9.333333333333332a0.4444444444444444 0.4444444444444444 0 1 0 0.8888888888888888 0 0.4444444444444444 0.4444444444444444 0 1 0 -0.8888888888888888 0" stroke-width="0.4444"></path>
    <path fill="#ffffff" d="M9.888888888888888 10.666666666666666a0.4444444444444444 0.4444444444444444 0 1 0 0.8888888888888888 0 0.4444444444444444 0.4444444444444444 0 1 0 -0.8888888888888888 0" stroke-width="0.4444"></path>
    <path fill="#ffffff" d="M9.888888888888888 12a0.4444444444444444 0.4444444444444444 0 1 0 0.8888888888888888 0 0.4444444444444444 0.4444444444444444 0 1 0 -0.8888888888888888 0" stroke-width="0.4444"></path>
    <path fill="#ffffff" d="M8.555555555555555 10.666666666666666a0.4444444444444444 0.4444444444444444 0 1 0 0.8888888888888888 0 0.4444444444444444 0.4444444444444444 0 1 0 -0.8888888888888888 0" stroke-width="0.4444"></path>
    <path fill="#ffffff" d="M8.555555555555555 12a0.4444444444444444 0.4444444444444444 0 1 0 0.8888888888888888 0 0.4444444444444444 0.4444444444444444 0 1 0 -0.8888888888888888 0" stroke-width="0.4444"></path>
    <path fill="#ffffff" d="M7.222222222222221 12a0.4444444444444444 0.4444444444444444 0 1 0 0.8888888888888888 0 0.4444444444444444 0.4444444444444444 0 1 0 -0.8888888888888888 0" stroke-width="0.4444"></path>
    <path fill="#ffffff" stroke="#ffffff" stroke-linecap="round" stroke-linejoin="round" d="M5.021022222222222 10.666666666666666A1.539911111111111 1.539911111111111 0 0 1 6.222222222222221 9.1408a1.4349333333333334 1.4349333333333334 0 0 0 -0.2882666666666666 -0.029688888888888886 1.557022222222222 1.557022222222222 0 0 0 0 3.1111111111111107A1.4349333333333334 1.4349333333333334 0 0 0 6.222222222222221 12.192533333333332 1.539911111111111 1.539911111111111 0 0 1 5.021022222222222 10.666666666666666Z" stroke-width="0.4444"></path>
  </g>
  <g id="line">
    <path fill="none" stroke="#000000" stroke-linecap="round" stroke-linejoin="round" stroke-width="0.8889" d="M2.2222222222222223 7.555555555555555h27.555555555555554v16.88888888888889H2.2222222222222223Z"></path>
  </g>
</svg>